<?xml version="1.0" encoding="utf-8"?>
<!-- Generator: Adobe Illustrator 24.0.1, SVG Export Plug-In . SVG Version: 6.00 Build 0)  -->
<svg version="1.1" id="Réteg_1" xmlns="http://www.w3.org/2000/svg" xmlns:xlink="http://www.w3.org/1999/xlink" x="0px" y="0px"
	 viewBox="0 0 500 500" style="enable-background:new 0 0 500 500;" xml:space="preserve">
<style type="text/css">
	.st0{fill:url(#SVGID_1_);}
	.st1{fill:url(#SVGID_2_);}
	.st2{fill:url(#SVGID_3_);}
	.st3{fill:url(#SVGID_4_);}
	.st4{fill:url(#SVGID_5_);}
	.st5{fill:url(#SVGID_6_);}
	.st6{fill:url(#SVGID_7_);}
	.st7{fill:url(#SVGID_8_);}
	.st8{fill:url(#SVGID_9_);}
	.st9{fill:url(#SVGID_10_);}
	.st10{fill:url(#SVGID_11_);}
	.st11{fill:url(#SVGID_12_);}
	.st12{fill:url(#SVGID_13_);}
	.st13{fill:url(#SVGID_14_);}
	.st14{fill:url(#SVGID_15_);}
	.st15{fill:url(#SVGID_16_);}
	.st16{fill:url(#SVGID_17_);}
	.st17{fill:url(#SVGID_18_);}
	.st18{fill:url(#SVGID_19_);}
	.st19{fill:url(#SVGID_20_);}
	.st20{fill:url(#SVGID_21_);}
	.st21{fill:url(#SVGID_22_);}
	.st22{fill:url(#SVGID_23_);}
	.st23{fill:url(#SVGID_24_);}
	.st24{fill:url(#SVGID_25_);}
	.st25{fill:url(#SVGID_26_);}
	.st26{fill:url(#SVGID_27_);}
	.st27{fill:url(#SVGID_28_);}
	.st28{fill:url(#SVGID_29_);}
	.st29{fill:url(#SVGID_30_);}
	.st30{fill:url(#SVGID_31_);}
	.st31{fill:url(#SVGID_32_);}
	.st32{fill:url(#SVGID_33_);}
	.st33{fill:url(#SVGID_34_);}
	.st34{fill:url(#SVGID_35_);}
	.st35{fill:url(#SVGID_36_);}
	.st36{fill:url(#SVGID_37_);}
	.st37{fill:url(#SVGID_38_);}
	.st38{fill:url(#SVGID_39_);}
	.st39{fill:url(#SVGID_40_);}
	.st40{fill:#F1D331;}
	.st41{fill:url(#SVGID_41_);}
	.st42{fill:url(#SVGID_42_);}
	.st43{fill:url(#SVGID_43_);}
	.st44{fill:url(#SVGID_44_);}
	.st45{fill:url(#SVGID_45_);}
	.st46{fill:url(#SVGID_46_);}
	.st47{opacity:0.1;fill:url(#SVGID_47_);enable-background:new    ;}
	.st48{opacity:0.1;fill:url(#SVGID_48_);enable-background:new    ;}
	.st49{fill:#F7311E;}
	.st50{fill:#DC171F;}
	.st51{fill:#AE0B1F;}
	.st52{fill:#D2171F;}
	.st53{opacity:0.2;enable-background:new    ;}
	.st54{opacity:0.8;fill:url(#SVGID_49_);enable-background:new    ;}
	.st55{opacity:0.2;fill:url(#SVGID_50_);enable-background:new    ;}
	.st56{fill:#F37C2B;}
	.st57{fill:#EEB10A;}
	.st58{fill:#F9FA99;}
	.st59{fill:#FFFFFF;}
	.st60{fill:#052745;}
	.st61{fill:#2FBFC1;}
	.st62{opacity:0.1;enable-background:new    ;}
	.st63{fill:#1FEEEA;}
	.st64{fill:#C6C6C6;}
	.st65{fill:#8C8C8C;}
	.st66{fill:#AFAFAF;}
</style>
<g id="BACKGROUND_2">
</g>
<g id="BACKGROUND_1">
	<g>
		
			<linearGradient id="SVGID_1_" gradientUnits="userSpaceOnUse" x1="436.3687" y1="277.0685" x2="436.1639" y2="273.5865" gradientTransform="matrix(1 0 0 -1 0 502)">
			<stop  offset="0" style="stop-color:#FFFFFF"/>
			<stop  offset="1" style="stop-color:#FFFFFF;stop-opacity:0"/>
		</linearGradient>
		<path class="st0" d="M437.3,226.1c0,0.6-0.5,1-1,1s-1-0.5-1-1c0-0.6,0.5-1,1-1S437.3,225.6,437.3,226.1z"/>
		
			<linearGradient id="SVGID_2_" gradientUnits="userSpaceOnUse" x1="423.8688" y1="220.6692" x2="423.664" y2="217.1876" gradientTransform="matrix(1 0 0 -1 0 502)">
			<stop  offset="0" style="stop-color:#FFFFFF"/>
			<stop  offset="1" style="stop-color:#FFFFFF;stop-opacity:0"/>
		</linearGradient>
		<path class="st1" d="M424.8,282.5c0,0.6-0.5,1-1,1c-0.6,0-1-0.5-1-1c0-0.6,0.5-1,1-1S424.8,282,424.8,282.5z"/>
		
			<linearGradient id="SVGID_3_" gradientUnits="userSpaceOnUse" x1="471.2726" y1="276.0346" x2="471.0678" y2="272.5529" gradientTransform="matrix(1 0 0 -1 0 502)">
			<stop  offset="0" style="stop-color:#FFFFFF"/>
			<stop  offset="1" style="stop-color:#FFFFFF;stop-opacity:0"/>
		</linearGradient>
		<path class="st2" d="M472.2,227.2c0,0.6-0.5,1-1,1c-0.6,0-1-0.5-1-1c0-0.6,0.5-1,1-1C471.8,226.1,472.2,226.6,472.2,227.2z"/>
		
			<linearGradient id="SVGID_4_" gradientUnits="userSpaceOnUse" x1="467.5729" y1="330.9392" x2="467.3681" y2="327.4576" gradientTransform="matrix(1 0 0 -1 0 502)">
			<stop  offset="0" style="stop-color:#FFFFFF"/>
			<stop  offset="1" style="stop-color:#FFFFFF;stop-opacity:0"/>
		</linearGradient>
		<path class="st3" d="M468.5,172.3c0,0.6-0.5,1-1,1c-0.6,0-1-0.5-1-1c0-0.6,0.5-1,1-1C468.1,171.2,468.5,171.7,468.5,172.3z"/>
		
			<linearGradient id="SVGID_5_" gradientUnits="userSpaceOnUse" x1="335.8718" y1="123.0201" x2="335.667" y2="119.5385" gradientTransform="matrix(1 0 0 -1 0 502)">
			<stop  offset="0" style="stop-color:#FFFFFF"/>
			<stop  offset="1" style="stop-color:#FFFFFF;stop-opacity:0"/>
		</linearGradient>
		<path class="st4" d="M336.8,380.2c0,0.6-0.5,1-1,1c-0.6,0-1-0.5-1-1c0-0.6,0.5-1,1-1C336.4,379.2,336.8,379.6,336.8,380.2z"/>
		
			<linearGradient id="SVGID_6_" gradientUnits="userSpaceOnUse" x1="380.7713" y1="27.9123" x2="380.5665" y2="24.4306" gradientTransform="matrix(1 0 0 -1 0 502)">
			<stop  offset="0" style="stop-color:#FFFFFF"/>
			<stop  offset="1" style="stop-color:#FFFFFF;stop-opacity:0"/>
		</linearGradient>
		<path class="st5" d="M381.7,475.3c0,0.6-0.5,1-1,1s-1-0.5-1-1c0-0.6,0.5-1,1-1S381.7,474.7,381.7,475.3z"/>
		
			<linearGradient id="SVGID_7_" gradientUnits="userSpaceOnUse" x1="385.7687" y1="149.1675" x2="385.5639" y2="145.6858" gradientTransform="matrix(1 0 0 -1 0 502)">
			<stop  offset="0" style="stop-color:#FFFFFF"/>
			<stop  offset="1" style="stop-color:#FFFFFF;stop-opacity:0"/>
		</linearGradient>
		<path class="st6" d="M386.7,354c0,0.6-0.5,1-1,1c-0.6,0-1-0.5-1-1c0-0.6,0.5-1,1-1S386.7,353.5,386.7,354z"/>
		
			<linearGradient id="SVGID_8_" gradientUnits="userSpaceOnUse" x1="447.4705" y1="106.6979" x2="447.2657" y2="103.2162" gradientTransform="matrix(1 0 0 -1 0 502)">
			<stop  offset="0" style="stop-color:#FFFFFF"/>
			<stop  offset="1" style="stop-color:#FFFFFF;stop-opacity:0"/>
		</linearGradient>
		<path class="st7" d="M448.4,396.5c0,0.6-0.5,1-1,1s-1-0.5-1-1c0-0.6,0.5-1,1-1S448.4,395.9,448.4,396.5z"/>
		
			<linearGradient id="SVGID_9_" gradientUnits="userSpaceOnUse" x1="481.7708" y1="65.9038" x2="481.566" y2="62.4221" gradientTransform="matrix(1 0 0 -1 0 502)">
			<stop  offset="0" style="stop-color:#FFFFFF"/>
			<stop  offset="1" style="stop-color:#FFFFFF;stop-opacity:0"/>
		</linearGradient>
		<path class="st8" d="M482.7,437.3c0,0.6-0.5,1-1,1c-0.6,0-1-0.5-1-1c0-0.6,0.5-1,1-1C482.3,436.3,482.7,436.7,482.7,437.3z"/>
		
			<linearGradient id="SVGID_10_" gradientUnits="userSpaceOnUse" x1="437.3704" y1="166.4962" x2="437.1655" y2="163.0144" gradientTransform="matrix(1 0 0 -1 0 502)">
			<stop  offset="0" style="stop-color:#FFFFFF"/>
			<stop  offset="1" style="stop-color:#FFFFFF;stop-opacity:0"/>
		</linearGradient>
		<path class="st9" d="M438.3,336.7c0,0.6-0.5,1-1,1c-0.6,0-1-0.5-1-1c0-0.6,0.5-1,1-1C437.9,335.7,438.3,336.1,438.3,336.7z"/>
		
			<linearGradient id="SVGID_11_" gradientUnits="userSpaceOnUse" x1="132.1722" y1="119.7278" x2="131.9674" y2="116.2458" gradientTransform="matrix(1 0 0 -1 0 502)">
			<stop  offset="0" style="stop-color:#FFFFFF"/>
			<stop  offset="1" style="stop-color:#FFFFFF;stop-opacity:0"/>
		</linearGradient>
		<path class="st10" d="M133.1,383.5c0,0.6-0.5,1-1,1c-0.6,0-1-0.5-1-1c0-0.6,0.5-1,1-1C132.6,382.4,133.1,382.9,133.1,383.5z"/>
		
			<linearGradient id="SVGID_12_" gradientUnits="userSpaceOnUse" x1="166.9687" y1="64.8676" x2="166.7639" y2="61.3856" gradientTransform="matrix(1 0 0 -1 0 502)">
			<stop  offset="0" style="stop-color:#FFFFFF"/>
			<stop  offset="1" style="stop-color:#FFFFFF;stop-opacity:0"/>
		</linearGradient>
		<path class="st11" d="M167.9,438.3c0,0.6-0.5,1-1,1c-0.6,0-1-0.5-1-1c0-0.6,0.5-1,1-1S167.9,437.8,167.9,438.3z"/>
		
			<linearGradient id="SVGID_13_" gradientUnits="userSpaceOnUse" x1="237.0705" y1="71.4993" x2="236.8657" y2="68.0172" gradientTransform="matrix(1 0 0 -1 0 502)">
			<stop  offset="0" style="stop-color:#FFFFFF"/>
			<stop  offset="1" style="stop-color:#FFFFFF;stop-opacity:0"/>
		</linearGradient>
		<path class="st12" d="M238,431.7c0,0.6-0.5,1-1,1c-0.6,0-1-0.5-1-1c0-0.6,0.5-1,1-1S238,431.1,238,431.7z"/>
		
			<linearGradient id="SVGID_14_" gradientUnits="userSpaceOnUse" x1="93.7734" y1="80.0475" x2="93.5686" y2="76.5655" gradientTransform="matrix(1 0 0 -1 0 502)">
			<stop  offset="0" style="stop-color:#FFFFFF"/>
			<stop  offset="1" style="stop-color:#FFFFFF;stop-opacity:0"/>
		</linearGradient>
		<path class="st13" d="M94.7,423.2c0,0.6-0.5,1-1,1c-0.6,0-1-0.5-1-1c0-0.6,0.5-1,1-1C94.2,422.1,94.7,422.6,94.7,423.2z"/>
		
			<linearGradient id="SVGID_15_" gradientUnits="userSpaceOnUse" x1="47.7679" y1="38.8551" x2="47.5631" y2="35.3732" gradientTransform="matrix(1 0 0 -1 0 502)">
			<stop  offset="0" style="stop-color:#FFFFFF"/>
			<stop  offset="1" style="stop-color:#FFFFFF;stop-opacity:0"/>
		</linearGradient>
		<path class="st14" d="M48.7,464.3c0,0.6-0.5,1-1,1c-0.6,0-1-0.5-1-1c0-0.6,0.5-1,1-1S48.7,463.8,48.7,464.3z"/>
		
			<linearGradient id="SVGID_16_" gradientUnits="userSpaceOnUse" x1="124.468" y1="38.856" x2="124.2632" y2="35.374" gradientTransform="matrix(1 0 0 -1 0 502)">
			<stop  offset="0" style="stop-color:#FFFFFF"/>
			<stop  offset="1" style="stop-color:#FFFFFF;stop-opacity:0"/>
		</linearGradient>
		<path class="st15" d="M125.4,464.3c0,0.6-0.5,1-1,1c-0.6,0-1-0.5-1-1c0-0.6,0.5-1,1-1S125.4,463.8,125.4,464.3z"/>
		
			<linearGradient id="SVGID_17_" gradientUnits="userSpaceOnUse" x1="34.4696" y1="160.3839" x2="34.2648" y2="156.9019" gradientTransform="matrix(1 0 0 -1 0 502)">
			<stop  offset="0" style="stop-color:#FFFFFF"/>
			<stop  offset="1" style="stop-color:#FFFFFF;stop-opacity:0"/>
		</linearGradient>
		<path class="st16" d="M35.4,342.8c0,0.6-0.5,1-1,1c-0.6,0-1-0.5-1-1c0-0.6,0.5-1,1-1C35,341.8,35.4,342.3,35.4,342.8z"/>
		
			<linearGradient id="SVGID_18_" gradientUnits="userSpaceOnUse" x1="34.4717" y1="97.5183" x2="34.2669" y2="94.0364" gradientTransform="matrix(1 0 0 -1 0 502)">
			<stop  offset="0" style="stop-color:#FFFFFF"/>
			<stop  offset="1" style="stop-color:#FFFFFF;stop-opacity:0"/>
		</linearGradient>
		<path class="st17" d="M35.4,405.7c0,0.6-0.5,1-1,1c-0.6,0-1-0.5-1-1c0-0.6,0.5-1,1-1C35,404.7,35.4,405.1,35.4,405.7z"/>
		
			<linearGradient id="SVGID_19_" gradientUnits="userSpaceOnUse" x1="192.1725" y1="107.7328" x2="191.9677" y2="104.251" gradientTransform="matrix(1 0 0 -1 0 502)">
			<stop  offset="0" style="stop-color:#FFFFFF"/>
			<stop  offset="1" style="stop-color:#FFFFFF;stop-opacity:0"/>
		</linearGradient>
		<path class="st18" d="M193.1,395.5c0,0.6-0.5,1-1,1s-1-0.5-1-1c0-0.6,0.5-1,1-1S193.1,394.9,193.1,395.5z"/>
		
			<linearGradient id="SVGID_20_" gradientUnits="userSpaceOnUse" x1="365.0708" y1="412.2041" x2="364.866" y2="408.7222" gradientTransform="matrix(1 0 0 -1 0 502)">
			<stop  offset="0" style="stop-color:#FFFFFF"/>
			<stop  offset="1" style="stop-color:#FFFFFF;stop-opacity:0"/>
		</linearGradient>
		<path class="st19" d="M366,91c0,0.6-0.5,1-1,1c-0.6,0-1-0.5-1-1c0-0.6,0.5-1,1-1S366,90.4,366,91z"/>
		
			<linearGradient id="SVGID_21_" gradientUnits="userSpaceOnUse" x1="49.7691" y1="307.2742" x2="49.5643" y2="303.7924" gradientTransform="matrix(1 0 0 -1 0 502)">
			<stop  offset="0" style="stop-color:#FFFFFF"/>
			<stop  offset="1" style="stop-color:#FFFFFF;stop-opacity:0"/>
		</linearGradient>
		<path class="st20" d="M50.7,195.9c0,0.6-0.5,1-1,1c-0.6,0-1-0.5-1-1c0-0.6,0.5-1,1-1C50.3,194.9,50.7,195.4,50.7,195.9z"/>
		
			<linearGradient id="SVGID_22_" gradientUnits="userSpaceOnUse" x1="149.5712" y1="413.5095" x2="149.3663" y2="410.0278" gradientTransform="matrix(1 0 0 -1 0 502)">
			<stop  offset="0" style="stop-color:#FFFFFF"/>
			<stop  offset="1" style="stop-color:#FFFFFF;stop-opacity:0"/>
		</linearGradient>
		<path class="st21" d="M150.5,89.7c0,0.6-0.5,1-1,1c-0.6,0-1-0.5-1-1c0-0.6,0.5-1,1-1S150.5,89.1,150.5,89.7z"/>
		
			<linearGradient id="SVGID_23_" gradientUnits="userSpaceOnUse" x1="83.5722" y1="429.8228" x2="83.3674" y2="426.341" gradientTransform="matrix(1 0 0 -1 0 502)">
			<stop  offset="0" style="stop-color:#FFFFFF"/>
			<stop  offset="1" style="stop-color:#FFFFFF;stop-opacity:0"/>
		</linearGradient>
		<path class="st22" d="M84.5,73.4c0,0.6-0.5,1-1,1c-0.6,0-1-0.5-1-1s0.5-1,1-1C84,72.3,84.5,72.8,84.5,73.4z"/>
		
			<linearGradient id="SVGID_24_" gradientUnits="userSpaceOnUse" x1="204.67" y1="471.8906" x2="204.4652" y2="468.4089" gradientTransform="matrix(1 0 0 -1 0 502)">
			<stop  offset="0" style="stop-color:#FFFFFF"/>
			<stop  offset="1" style="stop-color:#FFFFFF;stop-opacity:0"/>
		</linearGradient>
		<path class="st23" d="M205.6,31.3c0,0.6-0.5,1-1,1c-0.6,0-1-0.5-1-1c0-0.6,0.5-1,1-1S205.6,30.7,205.6,31.3z"/>
		
			<linearGradient id="SVGID_25_" gradientUnits="userSpaceOnUse" x1="282.4693" y1="444.1775" x2="282.2645" y2="440.6957" gradientTransform="matrix(1 0 0 -1 0 502)">
			<stop  offset="0" style="stop-color:#FFFFFF"/>
			<stop  offset="1" style="stop-color:#FFFFFF;stop-opacity:0"/>
		</linearGradient>
		<path class="st24" d="M283.4,59c0,0.6-0.5,1-1,1c-0.6,0-1-0.5-1-1c0-0.6,0.5-1,1-1S283.4,58.5,283.4,59z"/>
		
			<linearGradient id="SVGID_26_" gradientUnits="userSpaceOnUse" x1="435.3697" y1="453.9855" x2="435.1649" y2="450.5038" gradientTransform="matrix(1 0 0 -1 0 502)">
			<stop  offset="0" style="stop-color:#FFFFFF"/>
			<stop  offset="1" style="stop-color:#FFFFFF;stop-opacity:0"/>
		</linearGradient>
		<path class="st25" d="M436.3,49.2c0,0.6-0.5,1-1,1c-0.6,0-1-0.5-1-1c0-0.6,0.5-1,1-1S436.3,48.6,436.3,49.2z"/>
		
			<linearGradient id="SVGID_27_" gradientUnits="userSpaceOnUse" x1="461.9681" y1="487.0574" x2="461.7633" y2="483.5757" gradientTransform="matrix(1 0 0 -1 0 502)">
			<stop  offset="0" style="stop-color:#FFFFFF"/>
			<stop  offset="1" style="stop-color:#FFFFFF;stop-opacity:0"/>
		</linearGradient>
		<path class="st26" d="M462.9,16.1c0,0.6-0.5,1-1,1s-1-0.5-1-1c0-0.6,0.5-1,1-1S462.9,15.6,462.9,16.1z"/>
		
			<linearGradient id="SVGID_28_" gradientUnits="userSpaceOnUse" x1="482.773" y1="433.8398" x2="482.5681" y2="430.3581" gradientTransform="matrix(1 0 0 -1 0 502)">
			<stop  offset="0" style="stop-color:#FFFFFF"/>
			<stop  offset="1" style="stop-color:#FFFFFF;stop-opacity:0"/>
		</linearGradient>
		<path class="st27" d="M483.7,69.4c0,0.6-0.5,1-1,1c-0.6,0-1-0.5-1-1c0-0.6,0.5-1,1-1C483.3,68.3,483.7,68.8,483.7,69.4z"/>
		
			<linearGradient id="SVGID_29_" gradientUnits="userSpaceOnUse" x1="31.673" y1="247.2404" x2="31.4682" y2="243.7585" gradientTransform="matrix(1 0 0 -1 0 502)">
			<stop  offset="0" style="stop-color:#FFFFFF"/>
			<stop  offset="1" style="stop-color:#FFFFFF;stop-opacity:0"/>
		</linearGradient>
		<path class="st28" d="M32.6,256c0,0.6-0.5,1-1,1c-0.6,0-1-0.5-1-1c0-0.6,0.5-1,1-1C32.1,254.9,32.6,255.4,32.6,256z"/>
		
			<linearGradient id="SVGID_30_" gradientUnits="userSpaceOnUse" x1="422.7686" y1="359.762" x2="422.5638" y2="356.2803" gradientTransform="matrix(1 0 0 -1 0 502)">
			<stop  offset="0" style="stop-color:#FFFFFF"/>
			<stop  offset="1" style="stop-color:#FFFFFF;stop-opacity:0"/>
		</linearGradient>
		<path class="st29" d="M423.7,143.4c0,0.6-0.5,1-1,1c-0.6,0-1-0.5-1-1s0.5-1,1-1C423.3,142.4,423.7,142.9,423.7,143.4z"/>
		
			<linearGradient id="SVGID_31_" gradientUnits="userSpaceOnUse" x1="87.4725" y1="368.5328" x2="87.2677" y2="365.0513" gradientTransform="matrix(1 0 0 -1 0 502)">
			<stop  offset="0" style="stop-color:#FFFFFF"/>
			<stop  offset="1" style="stop-color:#FFFFFF;stop-opacity:0"/>
		</linearGradient>
		<path class="st30" d="M88.4,134.7c0,0.6-0.5,1-1,1c-0.6,0-1-0.5-1-1c0-0.6,0.5-1,1-1C87.9,133.6,88.4,134.1,88.4,134.7z"/>
		
			<linearGradient id="SVGID_32_" gradientUnits="userSpaceOnUse" x1="467.5707" y1="229.7022" x2="467.3659" y2="226.2204" gradientTransform="matrix(1 0 0 -1 0 502)">
			<stop  offset="0" style="stop-color:#FFFFFF"/>
			<stop  offset="1" style="stop-color:#FFFFFF;stop-opacity:0"/>
		</linearGradient>
		<path class="st31" d="M468.5,273.5c0,0.6-0.5,1-1,1c-0.6,0-1-0.5-1-1c0-0.6,0.5-1,1-1C468.1,272.5,468.5,272.9,468.5,273.5z"/>
		
			<linearGradient id="SVGID_33_" gradientUnits="userSpaceOnUse" x1="277.5736" y1="98.5511" x2="277.3688" y2="95.0696" gradientTransform="matrix(1 0 0 -1 0 502)">
			<stop  offset="0" style="stop-color:#FFFFFF"/>
			<stop  offset="1" style="stop-color:#FFFFFF;stop-opacity:0"/>
		</linearGradient>
		<path class="st32" d="M278.5,404.7c0,0.6-0.5,1-1,1c-0.6,0-1-0.5-1-1c0-0.6,0.5-1,1-1C278.1,403.6,278.5,404.1,278.5,404.7z"/>
		
			<linearGradient id="SVGID_34_" gradientUnits="userSpaceOnUse" x1="331.0726" y1="63.8336" x2="330.8678" y2="60.3522" gradientTransform="matrix(1 0 0 -1 0 502)">
			<stop  offset="0" style="stop-color:#FFFFFF"/>
			<stop  offset="1" style="stop-color:#FFFFFF;stop-opacity:0"/>
		</linearGradient>
		<path class="st33" d="M332,439.4c0,0.6-0.5,1-1,1c-0.6,0-1-0.5-1-1c0-0.6,0.5-1,1-1C331.5,438.3,332,438.8,332,439.4z"/>
		
			<linearGradient id="SVGID_35_" gradientUnits="userSpaceOnUse" x1="443.5682" y1="42.9589" x2="443.3634" y2="39.4775" gradientTransform="matrix(1 0 0 -1 0 502)">
			<stop  offset="0" style="stop-color:#FFFFFF"/>
			<stop  offset="1" style="stop-color:#FFFFFF;stop-opacity:0"/>
		</linearGradient>
		<path class="st34" d="M444.5,460.2c0,0.6-0.5,1-1,1c-0.6,0-1-0.5-1-1c0-0.6,0.5-1,1-1S444.5,459.7,444.5,460.2z"/>
		
			<linearGradient id="SVGID_36_" gradientUnits="userSpaceOnUse" x1="470.2691" y1="144.6751" x2="470.0643" y2="141.1936" gradientTransform="matrix(1 0 0 -1 0 502)">
			<stop  offset="0" style="stop-color:#FFFFFF"/>
			<stop  offset="1" style="stop-color:#FFFFFF;stop-opacity:0"/>
		</linearGradient>
		<path class="st35" d="M471.2,358.5c0,0.6-0.5,1-1,1c-0.6,0-1-0.5-1-1c0-0.6,0.5-1,1-1S471.2,358,471.2,358.5z"/>
		
			<linearGradient id="SVGID_37_" gradientUnits="userSpaceOnUse" x1="117.0683" y1="176.4604" x2="116.8635" y2="172.9786" gradientTransform="matrix(1 0 0 -1 0 502)">
			<stop  offset="0" style="stop-color:#FFFFFF"/>
			<stop  offset="1" style="stop-color:#FFFFFF;stop-opacity:0"/>
		</linearGradient>
		<path class="st36" d="M118,326.7c0,0.6-0.5,1-1,1c-0.6,0-1-0.5-1-1c0-0.6,0.5-1,1-1C117.6,325.7,118,326.2,118,326.7z"/>
		
			<linearGradient id="SVGID_38_" gradientUnits="userSpaceOnUse" x1="354.8702" y1="474.2933" x2="354.6654" y2="470.8115" gradientTransform="matrix(1 0 0 -1 0 502)">
			<stop  offset="0" style="stop-color:#FFFFFF"/>
			<stop  offset="1" style="stop-color:#FFFFFF;stop-opacity:0"/>
		</linearGradient>
		<path class="st37" d="M355.8,28.9c0,0.6-0.5,1-1,1c-0.6,0-1-0.5-1-1c0-0.6,0.5-1,1-1S355.8,28.3,355.8,28.9z"/>
		
			<linearGradient id="SVGID_39_" gradientUnits="userSpaceOnUse" x1="35.5681" y1="470.8582" x2="35.3633" y2="467.3763" gradientTransform="matrix(1 0 0 -1 0 502)">
			<stop  offset="0" style="stop-color:#FFFFFF"/>
			<stop  offset="1" style="stop-color:#FFFFFF;stop-opacity:0"/>
		</linearGradient>
		<path class="st38" d="M36.5,32.3c0,0.6-0.5,1-1,1c-0.6,0-1-0.5-1-1c0-0.6,0.5-1,1-1S36.5,31.8,36.5,32.3z"/>
		
			<linearGradient id="SVGID_40_" gradientUnits="userSpaceOnUse" x1="128.4632" y1="466.5733" x2="127.6972" y2="453.5524" gradientTransform="matrix(1 0 0 -1 0 502)">
			<stop  offset="0" style="stop-color:#FFFFFF"/>
			<stop  offset="1" style="stop-color:#FFFFFF;stop-opacity:0"/>
		</linearGradient>
		<path class="st39" d="M132.1,39.9c-3.2,0.4-3.5,0.7-3.9,3.9c-0.4-3.2-0.7-3.5-3.9-3.9c3.2-0.4,3.5-0.7,3.9-3.9
			C128.6,39.3,128.9,39.6,132.1,39.9z"/>
		<path class="st40" d="M72.2,299c-7.1,0.8-7.7,1.4-8.5,8.5c-0.8-7.1-1.4-7.7-8.5-8.5c7.1-0.8,7.7-1.4,8.5-8.5
			C64.4,297.6,65.1,298.2,72.2,299z"/>
		<path class="st40" d="M402.7,414.6c-7.1,0.8-7.7,1.4-8.5,8.5c-0.8-7.1-1.4-7.7-8.5-8.5c7.1-0.8,7.7-1.4,8.5-8.5
			C395,413.2,395.6,413.8,402.7,414.6z"/>
		<path class="st40" d="M431.3,98.2c-7.1,0.8-7.7,1.4-8.5,8.5c-0.8-7.1-1.4-7.7-8.5-8.5c7.1-0.8,7.7-1.4,8.5-8.5
			C423.5,96.8,424.2,97.4,431.3,98.2z"/>
		
			<linearGradient id="SVGID_41_" gradientUnits="userSpaceOnUse" x1="274.4629" y1="481.4695" x2="273.697" y2="468.4485" gradientTransform="matrix(1 0 0 -1 0 502)">
			<stop  offset="0" style="stop-color:#FFFFFF"/>
			<stop  offset="1" style="stop-color:#FFFFFF;stop-opacity:0"/>
		</linearGradient>
		<path class="st41" d="M278.1,25c-3.2,0.4-3.5,0.7-3.9,3.9c-0.4-3.2-0.7-3.5-3.9-3.9c3.2-0.4,3.5-0.7,3.9-3.9
			C274.6,24.4,274.9,24.7,278.1,25z"/>
		
			<linearGradient id="SVGID_42_" gradientUnits="userSpaceOnUse" x1="390.5673" y1="444.645" x2="389.8014" y2="431.6241" gradientTransform="matrix(1 0 0 -1 0 502)">
			<stop  offset="0" style="stop-color:#FFFFFF"/>
			<stop  offset="1" style="stop-color:#FFFFFF;stop-opacity:0"/>
		</linearGradient>
		<circle class="st42" cx="390.3" cy="61.9" r="3.9"/>
		
			<linearGradient id="SVGID_43_" gradientUnits="userSpaceOnUse" x1="31.763" y1="367.9712" x2="30.997" y2="354.9503" gradientTransform="matrix(1 0 0 -1 0 502)">
			<stop  offset="0" style="stop-color:#FFFFFF"/>
			<stop  offset="1" style="stop-color:#FFFFFF;stop-opacity:0"/>
		</linearGradient>
		<path class="st43" d="M35.4,138.5c-3.2,0.4-3.5,0.7-3.9,3.9c-0.4-3.2-0.7-3.5-3.9-3.9c3.2-0.4,3.5-0.7,3.9-3.9
			C31.9,137.9,32.2,138.2,35.4,138.5z"/>
		
			<linearGradient id="SVGID_44_" gradientUnits="userSpaceOnUse" x1="83.6654" y1="144.1116" x2="82.8994" y2="131.0907" gradientTransform="matrix(1 0 0 -1 0 502)">
			<stop  offset="0" style="stop-color:#FFFFFF"/>
			<stop  offset="1" style="stop-color:#FFFFFF;stop-opacity:0"/>
		</linearGradient>
		<path class="st44" d="M87.3,362.4c-3.2,0.4-3.5,0.7-3.9,3.9c-0.4-3.2-0.7-3.5-3.9-3.9c3.2-0.4,3.5-0.7,3.9-3.9
			C83.8,361.7,84.1,362,87.3,362.4z"/>
		
			<linearGradient id="SVGID_45_" gradientUnits="userSpaceOnUse" x1="93.8658" y1="232.1194" x2="93.0999" y2="219.0986" gradientTransform="matrix(1 0 0 -1 0 502)">
			<stop  offset="0" style="stop-color:#FFFFFF"/>
			<stop  offset="1" style="stop-color:#FFFFFF;stop-opacity:0"/>
		</linearGradient>
		<path class="st45" d="M97.5,274.4c-3.2,0.4-3.5,0.7-3.9,3.9c-0.4-3.2-0.7-3.5-3.9-3.9c3.2-0.4,3.5-0.7,3.9-3.9
			C94,273.7,94.3,274,97.5,274.4z"/>
		
			<linearGradient id="SVGID_46_" gradientUnits="userSpaceOnUse" x1="463.1638" y1="383.8847" x2="462.3978" y2="370.8638" gradientTransform="matrix(1 0 0 -1 0 502)">
			<stop  offset="0" style="stop-color:#FFFFFF"/>
			<stop  offset="1" style="stop-color:#FFFFFF;stop-opacity:0"/>
		</linearGradient>
		<path class="st46" d="M466.8,122.6c-3.2,0.4-3.5,0.7-3.9,3.9c-0.4-3.2-0.7-3.5-3.9-3.9c3.2-0.4,3.5-0.7,3.9-3.9
			C463.3,122,463.6,122.3,466.8,122.6z"/>
	</g>
	<g>
		
			<linearGradient id="SVGID_47_" gradientUnits="userSpaceOnUse" x1="254.6" y1="934.5154" x2="254.6" y2="-225.6408" gradientTransform="matrix(1 0 0 -1 0 502)">
			<stop  offset="0" style="stop-color:#FFFFFF"/>
			<stop  offset="1" style="stop-color:#FFFFFF;stop-opacity:0"/>
		</linearGradient>
		<path class="st47" d="M254.6,411.4c-22.1,0-43.6-4.3-63.8-12.9c-19.5-8.3-37-20.1-52.1-35.1c-15-15-26.9-32.6-35.1-52.1
			c-8.5-20.2-12.9-41.7-12.9-63.8s4.3-43.6,12.9-63.8c8.3-19.5,20.1-37,35.1-52.1c15-15,32.6-26.9,52.1-35.1
			c20.2-8.5,41.7-12.9,63.8-12.9s43.6,4.3,63.8,12.9c19.5,8.3,37,20.1,52.1,35.1c15,15,26.9,32.6,35.1,52.1
			c8.5,20.2,12.9,41.7,12.9,63.8s-4.3,43.6-12.9,63.8c-8.3,19.5-20.1,37-35.1,52.1c-15,15-32.6,26.9-52.1,35.1
			C298.2,407.1,276.8,411.4,254.6,411.4z"/>
		
			<linearGradient id="SVGID_48_" gradientUnits="userSpaceOnUse" x1="254.6" y1="885.7493" x2="254.6" y2="-191.2142" gradientTransform="matrix(1 0 0 -1 0 502)">
			<stop  offset="0" style="stop-color:#FFFFFF"/>
			<stop  offset="1" style="stop-color:#FFFFFF;stop-opacity:0"/>
		</linearGradient>
		<circle class="st48" cx="254.6" cy="247.5" r="152.1"/>
	</g>
	<g>
		<g>
			<g>
				<path class="st49" d="M392.2,255.7c-0.1,1.5-0.3,3-0.4,4.6c-2.2,20.5-9.1,40.8-20.7,59c-3.2,5.1-6.8,9.9-10.7,14.7
					c-0.4,0.5-0.9,1-1.3,1.6c-8.4,9.8-18,18.1-28.2,24.9c-3.5,2.4-7.2,4.5-10.9,6.5c-29.7,16-64.2,20.5-96.7,13.1h-0.1
					c-0.3-0.1-0.6-0.1-0.9-0.2c-10.4-2.5-20.7-6.2-30.5-11.2s-19.2-11.2-28-18.7c-2.4-2.1-4.7-4.2-6.9-6.4
					c-7.3-7.2-13.6-15-18.9-23.3c-4.5-6.9-8.3-14.2-11.5-21.7c-2.7-6.5-4.9-13.1-6.6-19.8c-1.5-6-2.6-12-3.2-18.1
					c-0.9-7.7-1.1-15.6-0.7-23.3c0.9-16,4.5-31.9,11-46.9c3.4-7.9,7.5-15.5,12.5-22.8c3-4.5,6.3-8.8,10-13
					c5.4-6.3,11.3-12,17.5-17.1c2.5-2.1,5.1-4,7.7-5.9c9.1-6.4,18.8-11.5,28.9-15.5c15.1-5.9,31.1-9.1,47.1-9.6
					c8.2-0.2,16.5,0.3,24.6,1.5c9.5,1.4,18.9,3.9,28,7.3c9.8,3.7,19.3,8.6,28.3,14.7c4.5,3,8.9,6.4,13.1,10
					c7.5,6.4,14.1,13.5,19.8,21.1c5.5,7.2,10.2,14.8,14.1,22.8c8.4,17.2,13.1,35.8,14,54.7c0,0,0,0,0,0.1c0,0.5,0,1,0.1,1.6
					C392.8,245.4,392.6,250.6,392.2,255.7z"/>
				<path class="st50" d="M295.2,182.5c0,0-36.1,2.4-64.3,26.3s-77.3,27.8-77.3,27.8s24.7-7.1,30.2-13.7c0,0-37.2,16.2-68,14.3
					c0.9-16,4.5-31.9,11-46.9c11.7-8.3,34.1-21.2,62.9-23.9c0,0-7.9,3.9-11.4,9.8c0.3-0.1,19.1-9.4,50.6-11.9
					c31.8-2.6,65.5-18.8,72.9-33c0,0-0.4,9.3-9.4,17.9c0.4-0.1,24-6.9,39-19c4.5,3,8.9,6.4,13.1,10c7.5,6.4,14.1,13.5,19.8,21.1
					c-13.7,11.4-41.8,28.9-87.5,33C277,194.2,286.6,192.7,295.2,182.5z"/>
				<path class="st50" d="M303.2,115.5c-9.7,7.9-27.3,23.7-49,32.2c-28,11-59.2,7.7-59.2,7.7l7.1-2.1c-30.7-0.4-54.1,9.9-62.6,14.3
					c3-4.5,6.3-8.8,10-13c5.4-6.3,11.3-12,17.5-17.1c2.5-2.1,5.1-4,7.7-5.9c11.4-2.3,25.4-3.9,42.1-3.9c19.1,0,37.5-7.3,37.5-7.3
					c-5.9,0.8-11.9-1.3-11.9-1.3c13.9-2.4,25.8-7.4,32.9-10.9C284.7,109.6,294.1,112,303.2,115.5z"/>
				<path class="st50" d="M332.9,259.9c0,0-38.8,25.9-92.7,30.1c0,0,15.8-8.6,18-11.8c-6.8,3.3-18.2,9.8-40.6,13.7
					c-50.7,8.8-71.8,9.6-91.2,6.6c-2.7-6.5-4.9-13.1-6.6-19.8c-1.5-6-2.6-12-3.2-18.1c16.7,1.4,46.5,2.6,71.1-3.5
					c36.3-9.1,75-32.6,75-32.6s-0.5,8.9-13.3,16.2c0,0,107-16.8,129.2-56.6c8.4,17.2,13.1,35.8,14,54.7c0,0,0,0,0,0.1
					c0,0.5,0,1,0.1,1.6c-9.8,9.1-30.9,23.5-70.8,29.3C321.7,269.6,335.5,262.4,332.9,259.9z"/>
				<path class="st50" d="M391.8,260.3c-2.2,20.5-9.1,40.8-20.7,59c-3.2,5.1-6.8,9.9-10.7,14.7c-15.5,7.8-32.8,14.1-46.3,16.4
					c0,0,14.5-5.5,21.6-12.5c-0.3,0.2-19.4,11.5-42.3,15.7c-23.1,4.3-54.1-0.8-75.3,6.6c0,0,13.7,1,21.6,2.9c0,0-10.6,0.2-23.4,3.1
					c-5.7,1.3-14.1,1.8-24.5,2.4c-9.8-5-19.2-11.2-28-18.7c-2.4-2.1-4.7-4.2-6.9-6.4c-7.3-7.2-13.6-15-18.9-23.3
					c10.1-1.8,27.7-3.8,45.9-0.5c27.9,5.1,70.4-14.1,70.4-14.1s-5.5,7.1-14,11.4c0,0,27.2-3.3,52.7-16.9
					C313.5,289,363.3,282.2,391.8,260.3z"/>
				<path class="st50" d="M319.9,366.9c-29.7,16-64.2,20.5-96.7,13.1h-0.1c-0.3-0.1-0.6-0.1-0.9-0.2c4.9-2.8,18.8-9.6,33.7-6
					C270.4,377.2,300,373.6,319.9,366.9z"/>
				<g>
					<path class="st51" d="M209.9,194.9c0,17.6-14.3,31.8-31.8,31.8c-8,0-15.2-2.9-20.8-7.8l0,0c-6.7-5.8-11-14.5-11-24.1
						c0-17.6,14.3-31.8,31.8-31.8c9.6,0,18.2,4.3,24.1,11l0,0C207,179.7,209.9,187,209.9,194.9z"/>
					<path class="st52" d="M209.9,194.9c0,17.6-14.3,31.8-31.8,31.8c-8,0-15.2-2.9-20.8-7.8l0,0c-4.8-5.6-7.8-12.9-7.8-20.8
						c0-17.6,14.2-31.8,31.8-31.8c8,0,15.3,2.9,20.9,7.8l0,0C207,179.7,209.9,187,209.9,194.9z"/>
				</g>
				<g>
					<path class="st51" d="M321.1,154.5c0,11.3-9.2,20.5-20.5,20.5c-5.1,0-9.8-1.9-13.4-5l0,0c-4.3-3.8-7.1-9.3-7.1-15.5
						c0-11.3,9.2-20.5,20.5-20.5c6.2,0,11.7,2.7,15.5,7.1l0,0C319.2,144.7,321.1,149.3,321.1,154.5z"/>
					<path class="st52" d="M321.1,154.5c0,11.3-9.2,20.5-20.5,20.5c-5.1,0-9.8-1.9-13.4-5l0,0c-3.1-3.6-5-8.3-5-13.4
						c0-11.3,9.2-20.5,20.5-20.5c5.1,0,9.8,1.9,13.4,5l0,0C319.2,144.7,321.1,149.3,321.1,154.5z"/>
				</g>
				<g>
					<path class="st51" d="M365.4,237.4c0,18.1-14.7,32.8-32.8,32.8c-8.2,0-15.7-3-21.5-8l0,0c-6.9-6-11.3-14.9-11.3-24.8
						c0-18.1,14.7-32.8,32.8-32.8c9.9,0,18.8,4.4,24.8,11.3l0,0C362.4,221.7,365.4,229.2,365.4,237.4z"/>
					<path class="st52" d="M365.4,237.4c0,18.1-14.7,32.8-32.8,32.8c-8.2,0-15.7-3-21.5-8l0,0c-5-5.8-8-13.3-8-21.5
						c0-18.1,14.7-32.8,32.8-32.8c8.2,0,15.7,3,21.5,8l0,0C362.4,221.7,365.4,229.2,365.4,237.4z"/>
				</g>
				<g>
					<path class="st51" d="M188.7,299c0,9.6-7.8,17.4-17.5,17.4c-4.4,0-8.4-1.6-11.4-4.3l0,0c-3.7-3.2-6-7.9-6-13.2
						c0-9.6,7.8-17.5,17.4-17.5c5.3,0,10,2.3,13.2,6l0,0C187.1,290.7,188.7,294.7,188.7,299z"/>
					<path class="st52" d="M188.7,299c0,9.6-7.8,17.4-17.5,17.4c-4.4,0-8.4-1.6-11.4-4.3l0,0c-2.6-3.1-4.3-7.1-4.3-11.4
						c0-9.6,7.8-17.4,17.4-17.4c4.4,0,8.4,1.6,11.4,4.3l0,0C187.1,290.7,188.7,294.7,188.7,299z"/>
				</g>
				<g>
					<path class="st51" d="M259.2,197c0,5.1-4.1,9.2-9.2,9.2c-2.3,0-4.4-0.8-6-2.2l0,0c-1.9-1.7-3.2-4.2-3.2-6.9
						c0-5.1,4.1-9.2,9.2-9.2c2.8,0,5.3,1.2,6.9,3.2l0,0C258.3,192.6,259.2,194.7,259.2,197z"/>
					<path class="st52" d="M259.2,197c0,5.1-4.1,9.2-9.2,9.2c-2.3,0-4.4-0.8-6-2.2l0,0c-1.4-1.6-2.2-3.7-2.2-6
						c0-5.1,4.1-9.2,9.2-9.2c2.3,0,4.4,0.8,6,2.2l0,0C258.3,192.6,259.2,194.7,259.2,197z"/>
				</g>
				<g>
					<path class="st51" d="M366.5,301.7c0,8.2-6.6,14.8-14.8,14.8c-3.7,0-7.1-1.4-9.7-3.6l0,0c-3.1-2.7-5.1-6.7-5.1-11.2
						c0-8.2,6.6-14.8,14.8-14.8c4.5,0,8.5,2,11.2,5.1l0,0C365.1,294.6,366.5,298,366.5,301.7z"/>
					<path class="st52" d="M366.5,301.7c0,8.2-6.6,14.8-14.8,14.8c-3.7,0-7.1-1.4-9.7-3.6l0,0c-2.2-2.6-3.6-6-3.6-9.7
						c0-8.2,6.6-14.8,14.8-14.8c3.7,0,7.1,1.4,9.7,3.6l0,0C365.1,294.6,366.5,298,366.5,301.7z"/>
				</g>
				<g>
					<path class="st51" d="M296.5,338.8c0,15.4-12.5,28-28,28c-7,0-13.4-2.6-18.3-6.8l0,0c-5.9-5.1-9.7-12.7-9.7-21.1
						c0-15.4,12.5-28,28-28c8.4,0,16,3.7,21.2,9.7l0,0C294,325.4,296.5,331.8,296.5,338.8z"/>
					<path class="st52" d="M296.5,338.8c0,15.4-12.5,28-28,28c-7,0-13.4-2.6-18.3-6.8l0,0c-4.2-4.9-6.8-11.3-6.8-18.3
						c0-15.4,12.5-28,28-28c7,0,13.4,2.6,18.3,6.8l0,0C294,325.4,296.5,331.8,296.5,338.8z"/>
				</g>
			</g>
			<path class="st53" d="M344.6,140.1c57.9,50,64.4,137.4,14.4,195.3c-34.7,40.2-87.5,55.6-135.9,44.5
				c76.4,4.1,137.3-99.4,95.6-173.5c-52.5-93.3-151.9-69-151.9-69C217.9,95.9,293,95.6,344.6,140.1z"/>
			
				<linearGradient id="SVGID_49_" gradientUnits="userSpaceOnUse" x1="-175.6895" y1="922.6644" x2="-222.7851" y2="1051.8278" gradientTransform="matrix(-8.770000e-02 0.9961 0.9961 8.770000e-02 -896.8732 388.7252)">
				<stop  offset="0" style="stop-color:#FFFFFF"/>
				<stop  offset="1" style="stop-color:#FFFFFF;stop-opacity:0"/>
			</linearGradient>
			<path class="st54" d="M144.4,182.3c-13.6,25.3-41,94.7,22.5,158.5c6.2,6.2,16.4,5.7,21.9-1l2.7-3.3c4.9-5.9,4.4-14.6-1.1-20
				c-16.3-15.9-43.6-54.6-19.1-122.2c3-8.3-1.9-17.4-10.4-19.4l0,0C154.4,173.4,147.6,176.4,144.4,182.3z"/>
		</g>
	</g>
	<g>
		
			<linearGradient id="SVGID_50_" gradientUnits="userSpaceOnUse" x1="98.2636" y1="442.9829" x2="115.094" y2="168.4377" gradientTransform="matrix(0.9984 5.670000e-02 5.670000e-02 -0.9984 -33.2429 534.6149)">
			<stop  offset="0" style="stop-color:#FFFFFF"/>
			<stop  offset="0.3472" style="stop-color:#FFFFFF;stop-opacity:0.6219"/>
			<stop  offset="1" style="stop-color:#FFFFFF;stop-opacity:0"/>
		</linearGradient>
		<path class="st55" d="M120.7,101.5c0,0-62.7,35.4-72.1,124.4c0,0,8.7-25.5,14.5-26.9c0,0-42,122.7,68.1,180.2
			c0,0-51.4-37.3-56.8-97.2c0,0,3.2,11.9,15.6,32.7c0,0-34.7-105.1,42-202.7L120.7,101.5z"/>
		<g>
			<g>
				<path class="st56" d="M122.1,121.3c-6.2,2.3-10.4,3-21.8,10.6c0,0,0,0-0.1,0.1c0,0,0-0.1,0.1-0.1c8-11.2,8.9-15.3,11.4-21.4
					s9.7-9.3,9.7-9.3l5.6,5l0,0l4.8,5.8C131.8,112,128.4,119.1,122.1,121.3z"/>
				<path class="st57" d="M109,123.5c2-3.6,3-6.4,4.1-9.2c0.4-0.9,0.7-1.9,1.1-2.9c1.3-3.2,6.1-7.1,8.1-8.2l3.6,3.7l3.7,3.8
					c-1.3,1.9-5,6.8-8.3,8c-1,0.4-2,0.7-2.9,1C115.5,120.7,112.7,121.6,109,123.5z"/>
				<path class="st58" d="M114,118.7c0.7-1.4,1.3-2.8,1.9-4.1l0,0c0.5-1,0.9-2.1,1.5-3.1c1-2,4-4.9,6.3-6.8l4.4,4.6
					c-2.1,2.5-4.9,5.5-6.8,6.3c-1.1,0.5-2.2,0.9-3.2,1.3l0,0C116.8,117.5,115.5,118,114,118.7z"/>
			</g>
			<g>
				<path class="st50" d="M128.8,85.1c-1.4-0.2-2.9,0-4.4,0.4c-7.4,1.9-15.1,9.5-15.1,9.5l0,0c-0.1-0.2-4.1-7.6,1.4-16.9
					c2.9-4.9,7.5-7.7,11.3-9.2c0.7-0.3,1.3-0.1,1.7,0.4c0.3,0.3,0.5,0.7,0.5,1.2c0,0.4-0.2,0.8-0.5,1.1l10.9-2.9l8.2-2.1l0,0
					C138.6,75.5,128.8,85.1,128.8,85.1z"/>
				<path class="st53" d="M109.3,94.9c-0.1-0.2-4.1-7.6,1.4-16.9c2.9-4.9,7.5-7.7,11.3-9.2c0.7-0.3,1.3-0.1,1.7,0.4
					c0.3,0.3,0.5,0.7,0.5,1.2c-0.2,0.4-0.3,0.7-0.5,1.1c0,0-8,3.9-11.9,11.5C108.1,90.4,109.3,94.8,109.3,94.9z"/>
				<path class="st53" d="M128.8,85.1c-1.4-0.2-2.9,0-4.4,0.4c2.1-6.5,6.3-12.4,10.2-16.8l8.2-2.1l0,0
					C138.6,75.5,128.8,85.1,128.8,85.1z"/>
			</g>
			<g>
				<path class="st50" d="M148.1,105.1c0.1,1.4-0.1,2.9-0.5,4.3c-2.2,7.3-10,14.8-10,14.8l0,0c0.2,0.1,7.5,4.3,16.9-0.8
					c5-2.7,7.9-7.2,9.6-11c0.3-0.7,0.1-1.3-0.3-1.8c-0.3-0.3-0.7-0.5-1.2-0.5c-0.4,0-0.8,0.1-1.1,0.5l3.3-10.8l2.4-8.1l0,0
					C158,95.7,148.1,105.1,148.1,105.1z"/>
				<path class="st53" d="M137.6,124.2c0.2,0.1,7.5,4.3,16.9-0.8c5-2.7,7.9-7.2,9.6-11c0.3-0.7,0.1-1.3-0.3-1.8
					c-0.3-0.3-0.7-0.5-1.2-0.5c-0.4,0.1-0.7,0.3-1.1,0.5c0,0-4.2,7.9-11.9,11.5C142,125.7,137.7,124.3,137.6,124.2z"/>
				<path class="st53" d="M148.1,105.1c0.1,1.4-0.1,2.9-0.5,4.3c6.6-1.8,12.7-5.9,17.2-9.6l2.4-8.1l0,0
					C158,95.7,148.1,105.1,148.1,105.1z"/>
			</g>
			<path class="st59" d="M166.4,92.5c-2.5,2.4-4.5,4.3-6.7,6s-4.4,3.1-7.4,4.7c-0.1,0.1-0.2,0.1-0.3,0.1l-4.9,2.2l-5.4,2.4
				l-10.3,4.6l-10.7-11.1l0.6-1.2l4.4-9l2.6-5.3c3.3-6.7,7.8-13,13.3-18.3c0.2-0.2,0.3-0.3,0.5-0.5c7.5-7.3,15-11.9,21.7-14.8
				c0.5-0.2,0.9-0.4,1.4-0.6c1.1-0.5,2.2-0.9,3.3-1.2c0.5-0.2,0.9-0.3,1.4-0.4c0.2-0.1,0.5-0.1,0.7-0.2c2.9-0.9,5.5-1.4,7.8-1.8
				c2.7-0.4,4.9-0.6,6.5-0.6c1.7,0,3,1.3,2.9,3c-0.2,3-0.8,8-2.9,14.1c-0.1,0.2-0.2,0.5-0.3,0.7c-0.2,0.4-0.3,0.9-0.5,1.3
				c-0.4,1-0.9,2.1-1.4,3.2c-0.2,0.4-0.4,0.9-0.6,1.3C178.8,77.9,173.9,85.2,166.4,92.5z"/>
			<path class="st60" d="M136.7,110.2l-5.4,2.4c-0.6-0.4-1.2-0.7-1.7-1.1c-0.5-0.3-0.9-0.7-1.4-1c-1.6-1.2-3-2.5-4.3-4
				s-2.4-3.2-3.3-5l2.6-5.3c1.3,2.2,2.7,4.3,4.3,6.2c1.9,2.2,4.1,4.2,6.5,6c0.4,0.3,0.8,0.6,1.2,0.9
				C135.8,109.6,136.2,109.9,136.7,110.2z"/>
			<path class="st53" d="M124,106.5c-1.3-1.5-2.4-3.2-3.3-5l2.6-5.3l2.4-4.8l2.6-5.3c3.3-6.7,7.8-13,13.3-18.3
				c0.2-0.2,0.3-0.3,0.5-0.5c10.2-9.8,20.3-14.8,28.4-17.3c2.9-0.9,5.5-1.4,7.8-1.8c0.3,2,1.2,2.3-1.5,5.6c0,0-23,5.6-34.7,21.4
				c-10.7,14.4-4.1,15.5-4.1,15.5l-10.3,11.7L124,106.5z"/>
			<g>
				<path class="st50" d="M121.2,112.9c-0.4,0.2-0.8,0-1-0.2c-0.2-0.3-0.3-0.6-0.2-1c6.5-14,26-27.7,34.2-33
					c0.4-0.3,0.9-0.2,1.1,0.1c0.3,0.3,0.4,0.7,0.1,1.2C149.8,87.9,135.4,106.9,121.2,112.9z"/>
				<path class="st53" d="M155.3,78.8l-35.2,33.9c-0.2-0.3-0.3-0.6-0.2-1c6.5-14,26-27.7,34.2-33C154.6,78.4,155.1,78.5,155.3,78.8z
					"/>
			</g>
			<g>
				<g>
					<path class="st60" d="M170.6,76.1c-3.4,3.3-8.9,3.2-12.2-0.2c-3.3-3.4-3.2-8.9,0.2-12.2s8.9-3.2,12.2,0.2S174,72.7,170.6,76.1z
						"/>
					<path class="st61" d="M169.3,74.8L169.3,74.8c-2.8,2.6-7,2.5-9.6-0.1c0,0,0,0-0.1-0.1c-0.4-0.5-0.8-1-1.1-1.5
						c-0.5-1-0.8-2.1-0.8-3.1c0-0.9,0.2-1.9,0.5-2.7c0.3-0.8,0.9-1.6,1.6-2.3c2.7-2.6,7-2.5,9.6,0.2c0.7,0.7,1.2,1.5,1.5,2.3
						c0.3,0.9,0.5,1.8,0.4,2.7c-0.1,1.1-0.4,2.2-0.9,3.1C170.2,73.8,169.8,74.3,169.3,74.8z"/>
					<path class="st62" d="M170.5,73.3c0.6-1,0.9-2,0.9-3.1c0-0.9-0.1-1.9-0.4-2.7c-0.3-0.8-0.8-1.6-1.5-2.3
						c-2.6-2.7-6.9-2.8-9.6-0.2c-0.1,0.1-0.3,0.3-0.4,0.4c2.7-2.2,6.7-2,9.2,0.6c0.7,0.7,1.2,1.5,1.5,2.3c0.3,0.9,0.5,1.8,0.4,2.7
						c-0.1,1.1-0.4,2.2-0.9,3.1c-0.2,0.4-0.5,0.7-0.8,1.1c0.1-0.1,0.2-0.2,0.4-0.3c0,0,0,0,0.1-0.1
						C169.8,74.3,170.2,73.8,170.5,73.3z"/>
				</g>
				<path class="st63" d="M169.3,68.3c0,0-0.1,3.9-2.9,5.5c-3.1,1.8-5.6,0-7.1-2.8c0,0,0,3.2,3.7,4.6S170.6,73.1,169.3,68.3z"/>
			</g>
			<g>
				<path class="st50" d="M184.7,64.8c-5.6-4.1-10.4-9-14.3-14.8c6.2-1.9,11.3-2.3,14.2-2.4c1.1,0,1.9,0.5,2.5,1.2
					c0.3,0.5,0.5,1.1,0.5,1.8C187.4,53.6,186.8,58.6,184.7,64.8z"/>
				<path class="st53" d="M186.1,54.1c0.1-0.6,0.2-1,0.4-1.8c0.2-1.4,0-2-0.9-2c-1.7-0.1-3.9,6.8-2.1,9.5
					C184.8,61.9,185.7,56.6,186.1,54.1z"/>
				<path class="st53" d="M184.7,64.8c-5.6-4.1-10.4-9-14.3-14.8c6.2-1.9,11.3-2.3,14.2-2.4c1.1,0,1.9,0.5,2.5,1.2
					c-0.6,0-4.9-0.3-7.4,2.1C177,53.6,178,59.3,184.7,64.8z"/>
			</g>
		</g>
	</g>
	<g>
		<g>
			<path class="st64" d="M452.7,206.7c0-2.9-1.5-5.6-3.7-7.5c-2.3-1.9-6.1-4.5-10-5.1c-6.3-0.8-5.7,6.2-11.7,7.2s-10.1,7.8-5.7,12.8
				s9.5-1.8,17.3,1.5C445.3,218.4,452.7,213.7,452.7,206.7z"/>
			<g>
				<path class="st65" d="M446.3,203.1c0,1.6-1.4,3-3,3c-0.7,0-1.3-0.2-1.9-0.6c-0.7-0.5-1.1-1.4-1.1-2.4c0-1.7,1.3-3,3-3
					c0.9,0,1.8,0.4,2.3,1.1C446.1,201.7,446.3,202.4,446.3,203.1z"/>
				<path class="st66" d="M446.3,203.1c0,1.6-1.4,3-3,3c-0.7,0-1.3-0.2-1.9-0.6c-0.4-0.5-0.6-1.1-0.6-1.8c0-1.7,1.4-3,3-3
					c0.7,0,1.3,0.2,1.8,0.6C446.1,201.7,446.3,202.4,446.3,203.1z"/>
			</g>
			<g>
				<path class="st65" d="M436.8,205.6c0,1.1-0.9,2-2,2c-0.5,0-0.9-0.2-1.2-0.4c-0.5-0.4-0.8-0.9-0.8-1.6c0-1.1,0.9-2,2-2
					c0.6,0,1.2,0.3,1.5,0.7C436.7,204.7,436.8,205.1,436.8,205.6z"/>
				<path class="st66" d="M436.8,205.6c0,1.1-0.9,2-2,2c-0.5,0-0.9-0.2-1.2-0.4c-0.3-0.3-0.4-0.8-0.4-1.2c0-1.1,0.9-2,2-2
					c0.5,0,0.9,0.2,1.2,0.4C436.7,204.7,436.8,205.1,436.8,205.6z"/>
			</g>
			<g>
				<path class="st65" d="M442.6,209.7c0,1.1-0.9,2-2,2c-0.5,0-0.9-0.2-1.2-0.4c-0.5-0.4-0.8-0.9-0.8-1.6c0-1.1,0.9-2,2-2
					c0.6,0,1.2,0.3,1.5,0.7C442.4,208.8,442.6,209.2,442.6,209.7z"/>
				<path class="st66" d="M442.6,209.7c0,1.1-0.9,2-2,2c-0.5,0-0.9-0.2-1.2-0.4c-0.3-0.3-0.4-0.8-0.4-1.2c0-1.1,0.9-2,2-2
					c0.5,0,0.9,0.2,1.2,0.4C442.4,208.8,442.6,209.2,442.6,209.7z"/>
			</g>
		</g>
		<g>
			<path class="st64" d="M78.2,354.6c0-3-1.5-5.7-3.8-7.5c-2.4-1.9-6.2-4.5-10.2-5c-6.4-0.8-5.7,6.3-11.7,7.4
				c-6.1,1.1-10.2,8.1-5.6,13.1s9.6-2,17.6,1.3C70.8,366.5,78.2,361.7,78.2,354.6z"/>
			<g>
				<path class="st65" d="M71.7,351c0,1.7-1.3,3.1-3,3.1c-0.7,0-1.4-0.2-1.9-0.6c-0.7-0.5-1.2-1.4-1.2-2.4c0-1.7,1.3-3.1,3-3.1
					c1,0,1.8,0.4,2.4,1.1C71.4,349.6,71.6,350.3,71.7,351z"/>
				<path class="st66" d="M71.7,351c0,1.7-1.3,3.1-3,3.1c-0.7,0-1.4-0.2-1.9-0.6c-0.4-0.5-0.7-1.2-0.7-1.9c0-1.7,1.3-3.1,3-3.1
					c0.7,0,1.3,0.2,1.9,0.6C71.4,349.6,71.6,350.3,71.7,351z"/>
			</g>
			<g>
				<path class="st65" d="M62.1,353.7c0,1.1-0.9,2-2,2c-0.5,0-0.9-0.2-1.2-0.4c-0.5-0.4-0.8-0.9-0.8-1.6c0-1.1,0.9-2,2-2
					c0.6,0,1.2,0.3,1.6,0.7C61.9,352.8,62.1,353.2,62.1,353.7z"/>
				<path class="st66" d="M62.1,353.7c0,1.1-0.9,2-2,2c-0.5,0-0.9-0.2-1.2-0.4c-0.3-0.3-0.4-0.8-0.4-1.2c0-1.1,0.9-2,2-2
					c0.5,0,0.9,0.1,1.2,0.4C61.9,352.8,62.1,353.2,62.1,353.7z"/>
			</g>
			<g>
				<path class="st65" d="M68,357.8c0,1.1-0.9,2-2,2c-0.5,0-0.9-0.2-1.2-0.4c-0.5-0.4-0.8-0.9-0.8-1.6c0-1.1,0.9-2,2-2
					c0.6,0,1.2,0.3,1.6,0.7C67.8,356.9,68,357.3,68,357.8z"/>
				<path class="st66" d="M68,357.8c0,1.1-0.9,2-2,2c-0.5,0-0.9-0.2-1.2-0.4c-0.3-0.3-0.4-0.8-0.4-1.2c0-1.1,0.9-2,2-2
					c0.5,0,0.9,0.1,1.2,0.4C67.8,356.9,68,357.3,68,357.8z"/>
			</g>
		</g>
		<g>
			<path class="st64" d="M32.8,231.4c0,0-6.1-0.1-8.1,4.6c-1.9,4.7,4.1,5.8,8.1,5.7c4-0.2,4.8-4.2,7-5.1
				C42,235.6,40.7,229.1,32.8,231.4z"/>
			<g>
				<path class="st65" d="M32.9,236.8c0,1.1-0.9,2-2,2c-0.5,0-0.9-0.2-1.2-0.4c-0.5-0.4-0.8-0.9-0.8-1.6c0-1.1,0.9-2,2-2
					c0.6,0,1.2,0.3,1.5,0.7S32.9,236.3,32.9,236.8z"/>
				<path class="st66" d="M32.9,236.8c0,1.1-0.9,2-2,2c-0.5,0-0.9-0.2-1.2-0.4c-0.3-0.3-0.4-0.8-0.4-1.2c0-1.1,0.9-2,2-2
					c0.5,0,0.9,0.2,1.2,0.4C32.7,235.9,32.9,236.3,32.9,236.8z"/>
			</g>
			<g>
				<path class="st65" d="M35.7,234.1c0,0.6-0.5,1-1,1c-0.2,0-0.5-0.1-0.6-0.2c-0.2-0.2-0.4-0.5-0.4-0.8c0-0.6,0.5-1,1-1
					c0.3,0,0.6,0.1,0.8,0.4C35.6,233.6,35.7,233.9,35.7,234.1z"/>
				<path class="st66" d="M35.7,234.1c0,0.6-0.5,1-1,1c-0.2,0-0.5-0.1-0.6-0.2c-0.1-0.2-0.2-0.4-0.2-0.6c0-0.6,0.5-1,1-1
					c0.2,0,0.5,0.1,0.6,0.2C35.6,233.6,35.7,233.9,35.7,234.1z"/>
			</g>
		</g>
		<g>
			<path class="st64" d="M229.2,50.4c0,0-6.1-0.1-8.1,4.6c-1.9,4.7,4.1,5.8,8.1,5.7c4-0.2,4.8-4.2,7-5.1
				C238.4,54.7,237,48.1,229.2,50.4z"/>
			<g>
				<path class="st65" d="M226.7,56.4c0,0.9-0.7,1.6-1.6,1.6c-0.4,0-0.7-0.1-1-0.3c-0.4-0.3-0.6-0.8-0.6-1.3c0-0.9,0.7-1.6,1.6-1.6
					c0.5,0,1,0.2,1.3,0.6C226.5,55.7,226.7,56,226.7,56.4z"/>
				<path class="st66" d="M226.7,56.4c0,0.9-0.7,1.6-1.6,1.6c-0.4,0-0.7-0.1-1-0.3c-0.2-0.3-0.3-0.6-0.3-1c0-0.9,0.7-1.6,1.6-1.6
					c0.4,0,0.7,0.1,1,0.3C226.5,55.7,226.7,56,226.7,56.4z"/>
			</g>
			<g>
				<path class="st65" d="M233.7,53.8c0,1.3-1.1,2.4-2.4,2.4c-0.6,0-1.1-0.2-1.5-0.5c-0.6-0.4-0.9-1.1-0.9-1.9
					c0-1.3,1.1-2.4,2.4-2.4c0.7,0,1.4,0.3,1.8,0.9C233.5,52.7,233.7,53.2,233.7,53.8z"/>
				<path class="st66" d="M233.7,53.8c0,1.3-1.1,2.4-2.4,2.4c-0.6,0-1.1-0.2-1.5-0.5c-0.3-0.4-0.5-0.9-0.5-1.5
					c0-1.3,1.1-2.4,2.4-2.4c0.5,0,1,0.2,1.4,0.5C233.5,52.7,233.7,53.2,233.7,53.8z"/>
			</g>
		</g>
		<g>
			<path class="st64" d="M133.8,420.5c0,0-3.4-0.1-4.5,2.5s2.2,3.3,4.5,3.2c2.2-0.1,2.7-2.3,3.9-2.8
				C138.9,422.9,138.2,419.2,133.8,420.5z"/>
			<g>
				<path class="st65" d="M133.7,423.2c0,0.7-0.6,1.3-1.3,1.3c-0.3,0-0.6-0.1-0.8-0.3c-0.3-0.2-0.5-0.6-0.5-1c0-0.7,0.6-1.3,1.3-1.3
					c0.4,0,0.8,0.2,1,0.5C133.6,422.6,133.7,422.8,133.7,423.2z"/>
				<path class="st66" d="M133.7,423.2c0,0.7-0.6,1.3-1.3,1.3c-0.3,0-0.6-0.1-0.8-0.3c-0.2-0.2-0.3-0.5-0.3-0.8
					c0-0.7,0.6-1.3,1.3-1.3c0.3,0,0.6,0.1,0.8,0.3C133.6,422.6,133.7,422.8,133.7,423.2z"/>
			</g>
		</g>
		<g>
			<path class="st64" d="M52.9,99.6c0,0-1.8,2.9-0.2,5.2c1.7,2.3,4-0.2,5-2.2c1.1-2-0.6-3.5-0.4-4.8C57.6,96.5,54.1,95.2,52.9,99.6z
				"/>
			<g>
				<path class="st65" d="M55.8,103.1c0,0.7-0.5,1.2-1.2,1.2c-0.3,0-0.5-0.1-0.7-0.3c-0.3-0.2-0.5-0.6-0.5-0.9
					c0-0.7,0.5-1.2,1.2-1.2c0.4,0,0.7,0.2,0.9,0.4C55.7,102.6,55.8,102.9,55.8,103.1z"/>
				<path class="st66" d="M55.8,103.1c0,0.7-0.5,1.2-1.2,1.2c-0.3,0-0.5-0.1-0.7-0.3c-0.2-0.2-0.3-0.5-0.3-0.7
					c0-0.7,0.5-1.2,1.2-1.2c0.3,0,0.5,0.1,0.7,0.2C55.7,102.6,55.8,102.9,55.8,103.1z"/>
			</g>
			<g>
				<path class="st65" d="M55.8,99.5c0,0.4-0.3,0.8-0.8,0.8c-0.2,0-0.3-0.1-0.5-0.2s-0.3-0.4-0.3-0.6c0-0.4,0.3-0.8,0.8-0.8
					c0.2,0,0.5,0.1,0.6,0.3C55.7,99.2,55.8,99.3,55.8,99.5z"/>
				<path class="st66" d="M55.8,99.5c0,0.4-0.3,0.8-0.8,0.8c-0.2,0-0.3-0.1-0.5-0.2c-0.1-0.1-0.2-0.3-0.2-0.5c0-0.4,0.3-0.8,0.8-0.8
					c0.2,0,0.3,0.1,0.5,0.2C55.7,99.2,55.8,99.3,55.8,99.5z"/>
			</g>
		</g>
		<path class="st64" d="M446,148.3c0,0-3.4,0.6-3.9,3.4c-0.5,2.8,2.9,2.7,5,2.2c2.2-0.5,2.2-2.9,3.2-3.6
			C451.5,149.5,450,146.1,446,148.3z"/>
		<g>
			<path class="st64" d="M433.5,361.8c0,0-6.1-0.1-8.1,4.6c-1.9,4.7,4.1,5.8,8.1,5.7c4-0.2,4.8-4.2,7-5.1
				C442.6,366.1,441.3,359.6,433.5,361.8z"/>
			<g>
				<path class="st65" d="M433.4,367.4c0,1.2-1,2.2-2.2,2.2c-0.5,0-1-0.2-1.4-0.5c-0.5-0.4-0.9-1-0.9-1.7c0-1.2,1-2.2,2.2-2.2
					c0.7,0,1.3,0.3,1.7,0.8C433.3,366.4,433.4,366.9,433.4,367.4z"/>
				<path class="st66" d="M433.4,367.4c0,1.2-1,2.2-2.2,2.2c-0.5,0-1-0.2-1.4-0.5c-0.3-0.4-0.5-0.9-0.5-1.4c0-1.2,1-2.2,2.2-2.2
					c0.5,0,1,0.2,1.4,0.5C433.3,366.4,433.4,366.9,433.4,367.4z"/>
			</g>
		</g>
		<g>
			<path class="st64" d="M321,415.9c0,0-3.4,0.3-4.2,3c-0.8,2.7,2.6,3,4.8,2.7c2.2-0.3,2.4-2.6,3.6-3.2
				C326.3,417.8,325.2,414.2,321,415.9z"/>
			<g>
				<path class="st65" d="M321.6,418.9c0,0.6-0.5,1.2-1.2,1.2c-0.3,0-0.5-0.1-0.7-0.2c-0.3-0.2-0.4-0.5-0.4-0.9
					c0-0.6,0.5-1.2,1.2-1.2c0.4,0,0.7,0.2,0.9,0.4C321.5,418.4,321.6,418.6,321.6,418.9z"/>
				<path class="st66" d="M321.6,418.9c0,0.6-0.5,1.2-1.2,1.2c-0.3,0-0.5-0.1-0.7-0.2c-0.2-0.2-0.2-0.4-0.2-0.7
					c0-0.6,0.5-1.2,1.2-1.2c0.3,0,0.5,0.1,0.7,0.2C321.5,418.4,321.6,418.6,321.6,418.9z"/>
			</g>
		</g>
		<g>
			<path class="st64" d="M336.8,67.7c0,0-3.4,0.3-4.2,3c-0.8,2.7,2.6,3,4.8,2.7c2.2-0.3,2.4-2.6,3.6-3.2S341,66,336.8,67.7z"/>
			<g>
				<path class="st65" d="M336.9,70.7c0,0.7-0.6,1.4-1.4,1.4c-0.3,0-0.6-0.1-0.8-0.3c-0.3-0.2-0.5-0.6-0.5-1.1
					c0-0.7,0.6-1.4,1.4-1.4c0.4,0,0.8,0.2,1.1,0.5C336.8,70.1,336.9,70.4,336.9,70.7z"/>
				<path class="st66" d="M336.9,70.7c0,0.7-0.6,1.4-1.4,1.4c-0.3,0-0.6-0.1-0.8-0.3c-0.2-0.2-0.3-0.5-0.3-0.8
					c0-0.7,0.6-1.4,1.4-1.4c0.3,0,0.6,0.1,0.8,0.3S336.9,70.4,336.9,70.7z"/>
			</g>
			<g>
				<path class="st65" d="M339.4,69.2c0,0.5-0.4,0.8-0.8,0.8c-0.2,0-0.4-0.1-0.5-0.2c-0.2-0.2-0.3-0.4-0.3-0.6
					c0-0.5,0.4-0.8,0.8-0.8c0.3,0,0.5,0.1,0.6,0.3C339.3,68.8,339.4,69,339.4,69.2z"/>
				<path class="st66" d="M339.4,69.2c0,0.5-0.4,0.8-0.8,0.8c-0.2,0-0.4-0.1-0.5-0.2s-0.2-0.3-0.2-0.5c0-0.5,0.4-0.8,0.8-0.8
					c0.2,0,0.4,0.1,0.5,0.2C339.3,68.8,339.4,69,339.4,69.2z"/>
			</g>
		</g>
	</g>
</g>
</svg>
